# xmcd
#
# Track frame offsets: 
#        150
#        15085
#        31886
#        45186
#        59198
#        77391
#        92758
#        107345
#        131519
#        148380
#        167705
#
# Disc length: 2464 seconds
#
# Revision: 0
# Processed by: cddbd v1.5.2PL0 Copyright (c) Steve Scherf et al.
# Submitted via: ExactAudioCopyFreeDBPlugin 1.0
#
DISCID=80099e0b
DTITLE=Hanna Fearns - Sentimental Bones
DYEAR=2014
DGENRE=Sofa Country
TTITLE0=You Stole My Crown
TTITLE1=Spit Onto Your Face
TTITLE2=Dream Of Me
TTITLE3=Die Alone
TTITLE4=9mm
TTITLE5=Waste Land
TTITLE6=Hey Sweetheart
TTITLE7=Sweet As November
TTITLE8=Slaves Of Opportunity
TTITLE9=Idea Of Tea
TTITLE10=Please Darkness Please
EXTD=
EXTT0=
EXTT1=
EXTT2=
EXTT3=
EXTT4=
EXTT5=
EXTT6=
EXTT7=
EXTT8=
EXTT9=
EXTT10=
PLAYORDER=
